<svg width="507" height="273" viewBox="0 0 507 273" fill="none" xmlns="http://www.w3.org/2000/svg">
<path d="M21.5 6V253" stroke="#F0F0F0"/>
<path d="M141.5 6V253" stroke="#F0F0F0"/>
<path d="M261.5 6V253" stroke="#F0F0F0"/>
<path d="M380.5 6V253" stroke="#F0F0F0"/>
<path d="M501.5 6V253" stroke="#F0F0F0"/>
<path d="M22 253.5H501" stroke="#F0F0F0"/>
<path d="M22 191.5H501" stroke="#F0F0F0"/>
<path d="M22 130.5H501" stroke="#F0F0F0"/>
<path d="M22 68.5H501" stroke="#F0F0F0"/>
<path d="M22 5.5H501" stroke="#F0F0F0"/>
<path d="M22 253.5H501" stroke="#F0F0F0"/>
<path d="M21.5 6V253" stroke="#F0F0F0"/>
<path d="M12.4248 265.879V266.963C12.4248 267.546 12.3727 268.037 12.2686 268.438C12.1644 268.838 12.0146 269.16 11.8193 269.404C11.624 269.648 11.388 269.826 11.1113 269.937C10.8379 270.044 10.5286 270.098 10.1836 270.098C9.91016 270.098 9.65788 270.063 9.42676 269.995C9.19564 269.927 8.9873 269.818 8.80176 269.668C8.61947 269.515 8.46322 269.316 8.33301 269.072C8.2028 268.828 8.10352 268.532 8.03516 268.184C7.9668 267.835 7.93262 267.428 7.93262 266.963V265.879C7.93262 265.296 7.9847 264.808 8.08887 264.414C8.19629 264.02 8.34766 263.704 8.54297 263.467C8.73828 263.226 8.97266 263.053 9.24609 262.949C9.52279 262.845 9.83203 262.793 10.1738 262.793C10.4505 262.793 10.7044 262.827 10.9355 262.896C11.1699 262.961 11.3783 263.066 11.5605 263.213C11.7428 263.356 11.8975 263.548 12.0244 263.789C12.1546 264.027 12.2539 264.318 12.3223 264.663C12.3906 265.008 12.4248 265.413 12.4248 265.879ZM11.5166 267.109V265.728C11.5166 265.409 11.4971 265.129 11.458 264.888C11.4222 264.644 11.3685 264.435 11.2969 264.263C11.2253 264.09 11.1341 263.95 11.0234 263.843C10.916 263.735 10.7907 263.657 10.6475 263.608C10.5075 263.556 10.3496 263.53 10.1738 263.53C9.95898 263.53 9.76855 263.571 9.60254 263.652C9.43652 263.73 9.29655 263.856 9.18262 264.028C9.07194 264.201 8.9873 264.427 8.92871 264.707C8.87012 264.987 8.84082 265.327 8.84082 265.728V267.109C8.84082 267.428 8.85872 267.71 8.89453 267.954C8.93359 268.198 8.99056 268.41 9.06543 268.589C9.1403 268.765 9.23145 268.91 9.33887 269.023C9.44629 269.137 9.56999 269.222 9.70996 269.277C9.85319 269.329 10.0111 269.355 10.1836 269.355C10.4049 269.355 10.5986 269.313 10.7646 269.229C10.9307 269.144 11.069 269.012 11.1797 268.833C11.2936 268.651 11.3783 268.418 11.4336 268.135C11.4889 267.848 11.5166 267.507 11.5166 267.109ZM16.5557 262.852V270H15.6523V263.979L13.8311 264.644V263.828L16.4141 262.852H16.5557ZM24.5586 263.521L22.2051 270H21.2432L23.9531 262.891H24.5732L24.5586 263.521ZM26.5312 270L24.1729 263.521L24.1582 262.891H24.7783L27.498 270H26.5312ZM26.4092 267.368V268.14H22.415V267.368H26.4092ZM29.2168 265.732V272.031H28.3086V264.717H29.1387L29.2168 265.732ZM32.7764 267.314V267.417C32.7764 267.801 32.7308 268.158 32.6396 268.486C32.5485 268.812 32.415 269.095 32.2393 269.336C32.0667 269.577 31.8535 269.764 31.5996 269.897C31.3457 270.031 31.0544 270.098 30.7256 270.098C30.3903 270.098 30.0941 270.042 29.8369 269.932C29.5798 269.821 29.3617 269.66 29.1826 269.448C29.0036 269.237 28.8604 268.983 28.7529 268.687C28.6488 268.39 28.5771 268.057 28.5381 267.686V267.139C28.5771 266.748 28.6504 266.398 28.7578 266.089C28.8652 265.78 29.0068 265.516 29.1826 265.298C29.3617 265.076 29.5781 264.909 29.832 264.795C30.0859 264.678 30.3789 264.619 30.7109 264.619C31.043 264.619 31.3376 264.684 31.5947 264.814C31.8519 264.941 32.0684 265.124 32.2441 265.361C32.4199 265.599 32.5518 265.884 32.6396 266.216C32.7308 266.545 32.7764 266.911 32.7764 267.314ZM31.8682 267.417V267.314C31.8682 267.051 31.8405 266.803 31.7852 266.572C31.7298 266.338 31.6436 266.133 31.5264 265.957C31.4124 265.778 31.266 265.638 31.0869 265.537C30.9079 265.433 30.6947 265.381 30.4473 265.381C30.2194 265.381 30.0208 265.42 29.8516 265.498C29.6855 265.576 29.5439 265.682 29.4268 265.815C29.3096 265.946 29.2135 266.095 29.1387 266.265C29.0671 266.431 29.0133 266.603 28.9775 266.782V268.047C29.0426 268.275 29.1338 268.49 29.251 268.691C29.3682 268.89 29.5244 269.051 29.7197 269.175C29.915 269.295 30.1608 269.355 30.457 269.355C30.7012 269.355 30.9111 269.305 31.0869 269.204C31.266 269.1 31.4124 268.958 31.5264 268.779C31.6436 268.6 31.7298 268.395 31.7852 268.164C31.8405 267.93 31.8682 267.681 31.8682 267.417ZM34.832 265.547V270H33.9287V264.717H34.8076L34.832 265.547ZM36.4824 264.688L36.4775 265.527C36.4027 265.511 36.3311 265.501 36.2627 265.498C36.1976 265.492 36.1227 265.488 36.0381 265.488C35.8298 265.488 35.6458 265.521 35.4863 265.586C35.3268 265.651 35.1917 265.742 35.0811 265.859C34.9704 265.977 34.8825 266.117 34.8174 266.279C34.7555 266.439 34.7148 266.615 34.6953 266.807L34.4414 266.953C34.4414 266.634 34.4723 266.335 34.5342 266.055C34.5993 265.775 34.6986 265.527 34.832 265.312C34.9655 265.094 35.1348 264.925 35.3398 264.805C35.5482 264.681 35.7956 264.619 36.082 264.619C36.1471 264.619 36.222 264.627 36.3066 264.644C36.3913 264.657 36.4499 264.671 36.4824 264.688Z" fill="#A3A3A3"/>
<path d="M132.175 265.879V266.963C132.175 267.546 132.123 268.037 132.019 268.438C131.914 268.838 131.765 269.16 131.569 269.404C131.374 269.648 131.138 269.826 130.861 269.937C130.588 270.044 130.279 270.098 129.934 270.098C129.66 270.098 129.408 270.063 129.177 269.995C128.946 269.927 128.737 269.818 128.552 269.668C128.369 269.515 128.213 269.316 128.083 269.072C127.953 268.828 127.854 268.532 127.785 268.184C127.717 267.835 127.683 267.428 127.683 266.963V265.879C127.683 265.296 127.735 264.808 127.839 264.414C127.946 264.02 128.098 263.704 128.293 263.467C128.488 263.226 128.723 263.053 128.996 262.949C129.273 262.845 129.582 262.793 129.924 262.793C130.201 262.793 130.454 262.827 130.686 262.896C130.92 262.961 131.128 263.066 131.311 263.213C131.493 263.356 131.647 263.548 131.774 263.789C131.905 264.027 132.004 264.318 132.072 264.663C132.141 265.008 132.175 265.413 132.175 265.879ZM131.267 267.109V265.728C131.267 265.409 131.247 265.129 131.208 264.888C131.172 264.644 131.118 264.435 131.047 264.263C130.975 264.09 130.884 263.95 130.773 263.843C130.666 263.735 130.541 263.657 130.397 263.608C130.257 263.556 130.1 263.53 129.924 263.53C129.709 263.53 129.519 263.571 129.353 263.652C129.187 263.73 129.047 263.856 128.933 264.028C128.822 264.201 128.737 264.427 128.679 264.707C128.62 264.987 128.591 265.327 128.591 265.728V267.109C128.591 267.428 128.609 267.71 128.645 267.954C128.684 268.198 128.741 268.41 128.815 268.589C128.89 268.765 128.981 268.91 129.089 269.023C129.196 269.137 129.32 269.222 129.46 269.277C129.603 269.329 129.761 269.355 129.934 269.355C130.155 269.355 130.349 269.313 130.515 269.229C130.681 269.144 130.819 269.012 130.93 268.833C131.044 268.651 131.128 268.418 131.184 268.135C131.239 267.848 131.267 267.507 131.267 267.109ZM137.995 269.258V270H133.342V269.351L135.671 266.758C135.957 266.439 136.179 266.169 136.335 265.947C136.494 265.723 136.605 265.522 136.667 265.347C136.732 265.168 136.765 264.985 136.765 264.8C136.765 264.565 136.716 264.354 136.618 264.165C136.524 263.973 136.384 263.82 136.198 263.706C136.013 263.592 135.788 263.535 135.524 263.535C135.209 263.535 134.945 263.597 134.733 263.721C134.525 263.841 134.369 264.01 134.265 264.229C134.16 264.447 134.108 264.697 134.108 264.98H133.205C133.205 264.58 133.293 264.214 133.469 263.882C133.645 263.55 133.905 263.286 134.25 263.091C134.595 262.892 135.02 262.793 135.524 262.793C135.974 262.793 136.358 262.873 136.677 263.032C136.996 263.188 137.24 263.41 137.409 263.696C137.582 263.979 137.668 264.312 137.668 264.692C137.668 264.901 137.632 265.112 137.561 265.327C137.492 265.539 137.396 265.75 137.272 265.962C137.152 266.174 137.01 266.382 136.848 266.587C136.688 266.792 136.517 266.994 136.335 267.192L134.431 269.258H137.995ZM144.309 263.521L141.955 270H140.993L143.703 262.891H144.323L144.309 263.521ZM146.281 270L143.923 263.521L143.908 262.891H144.528L147.248 270H146.281ZM146.159 267.368V268.14H142.165V267.368H146.159ZM148.967 265.732V272.031H148.059V264.717H148.889L148.967 265.732ZM152.526 267.314V267.417C152.526 267.801 152.481 268.158 152.39 268.486C152.299 268.812 152.165 269.095 151.989 269.336C151.817 269.577 151.604 269.764 151.35 269.897C151.096 270.031 150.804 270.098 150.476 270.098C150.14 270.098 149.844 270.042 149.587 269.932C149.33 269.821 149.112 269.66 148.933 269.448C148.754 269.237 148.61 268.983 148.503 268.687C148.399 268.39 148.327 268.057 148.288 267.686V267.139C148.327 266.748 148.4 266.398 148.508 266.089C148.615 265.78 148.757 265.516 148.933 265.298C149.112 265.076 149.328 264.909 149.582 264.795C149.836 264.678 150.129 264.619 150.461 264.619C150.793 264.619 151.088 264.684 151.345 264.814C151.602 264.941 151.818 265.124 151.994 265.361C152.17 265.599 152.302 265.884 152.39 266.216C152.481 266.545 152.526 266.911 152.526 267.314ZM151.618 267.417V267.314C151.618 267.051 151.59 266.803 151.535 266.572C151.48 266.338 151.394 266.133 151.276 265.957C151.162 265.778 151.016 265.638 150.837 265.537C150.658 265.433 150.445 265.381 150.197 265.381C149.969 265.381 149.771 265.42 149.602 265.498C149.436 265.576 149.294 265.682 149.177 265.815C149.06 265.946 148.964 266.095 148.889 266.265C148.817 266.431 148.763 266.603 148.728 266.782V268.047C148.793 268.275 148.884 268.49 149.001 268.691C149.118 268.89 149.274 269.051 149.47 269.175C149.665 269.295 149.911 269.355 150.207 269.355C150.451 269.355 150.661 269.305 150.837 269.204C151.016 269.1 151.162 268.958 151.276 268.779C151.394 268.6 151.48 268.395 151.535 268.164C151.59 267.93 151.618 267.681 151.618 267.417ZM154.582 265.547V270H153.679V264.717H154.558L154.582 265.547ZM156.232 264.688L156.228 265.527C156.153 265.511 156.081 265.501 156.013 265.498C155.948 265.492 155.873 265.488 155.788 265.488C155.58 265.488 155.396 265.521 155.236 265.586C155.077 265.651 154.942 265.742 154.831 265.859C154.72 265.977 154.632 266.117 154.567 266.279C154.506 266.439 154.465 266.615 154.445 266.807L154.191 266.953C154.191 266.634 154.222 266.335 154.284 266.055C154.349 265.775 154.449 265.527 154.582 265.312C154.715 265.094 154.885 264.925 155.09 264.805C155.298 264.681 155.546 264.619 155.832 264.619C155.897 264.619 155.972 264.627 156.057 264.644C156.141 264.657 156.2 264.671 156.232 264.688Z" fill="#A3A3A3"/>
<path d="M251.925 265.879V266.963C251.925 267.546 251.873 268.037 251.769 268.438C251.664 268.838 251.515 269.16 251.319 269.404C251.124 269.648 250.888 269.826 250.611 269.937C250.338 270.044 250.029 270.098 249.684 270.098C249.41 270.098 249.158 270.063 248.927 269.995C248.696 269.927 248.487 269.818 248.302 269.668C248.119 269.515 247.963 269.316 247.833 269.072C247.703 268.828 247.604 268.532 247.535 268.184C247.467 267.835 247.433 267.428 247.433 266.963V265.879C247.433 265.296 247.485 264.808 247.589 264.414C247.696 264.02 247.848 263.704 248.043 263.467C248.238 263.226 248.473 263.053 248.746 262.949C249.023 262.845 249.332 262.793 249.674 262.793C249.951 262.793 250.204 262.827 250.436 262.896C250.67 262.961 250.878 263.066 251.061 263.213C251.243 263.356 251.397 263.548 251.524 263.789C251.655 264.027 251.754 264.318 251.822 264.663C251.891 265.008 251.925 265.413 251.925 265.879ZM251.017 267.109V265.728C251.017 265.409 250.997 265.129 250.958 264.888C250.922 264.644 250.868 264.435 250.797 264.263C250.725 264.09 250.634 263.95 250.523 263.843C250.416 263.735 250.291 263.657 250.147 263.608C250.007 263.556 249.85 263.53 249.674 263.53C249.459 263.53 249.269 263.571 249.103 263.652C248.937 263.73 248.797 263.856 248.683 264.028C248.572 264.201 248.487 264.427 248.429 264.707C248.37 264.987 248.341 265.327 248.341 265.728V267.109C248.341 267.428 248.359 267.71 248.395 267.954C248.434 268.198 248.491 268.41 248.565 268.589C248.64 268.765 248.731 268.91 248.839 269.023C248.946 269.137 249.07 269.222 249.21 269.277C249.353 269.329 249.511 269.355 249.684 269.355C249.905 269.355 250.099 269.313 250.265 269.229C250.431 269.144 250.569 269.012 250.68 268.833C250.794 268.651 250.878 268.418 250.934 268.135C250.989 267.848 251.017 267.507 251.017 267.109ZM254.405 266.001H255.05C255.366 266.001 255.626 265.949 255.831 265.845C256.039 265.737 256.194 265.592 256.295 265.41C256.399 265.225 256.451 265.016 256.451 264.785C256.451 264.512 256.406 264.282 256.314 264.097C256.223 263.911 256.087 263.771 255.904 263.677C255.722 263.582 255.491 263.535 255.211 263.535C254.957 263.535 254.732 263.586 254.537 263.687C254.345 263.784 254.194 263.924 254.083 264.106C253.976 264.289 253.922 264.504 253.922 264.751H253.019C253.019 264.39 253.11 264.061 253.292 263.765C253.474 263.468 253.73 263.232 254.059 263.057C254.391 262.881 254.775 262.793 255.211 262.793C255.641 262.793 256.017 262.869 256.339 263.022C256.661 263.172 256.912 263.397 257.091 263.696C257.27 263.993 257.359 264.362 257.359 264.805C257.359 264.984 257.317 265.176 257.232 265.381C257.151 265.583 257.022 265.771 256.847 265.947C256.674 266.123 256.45 266.268 256.173 266.382C255.896 266.493 255.564 266.548 255.177 266.548H254.405V266.001ZM254.405 266.743V266.201H255.177C255.629 266.201 256.004 266.255 256.3 266.362C256.596 266.47 256.829 266.613 256.998 266.792C257.171 266.971 257.291 267.168 257.359 267.383C257.431 267.594 257.467 267.806 257.467 268.018C257.467 268.35 257.41 268.644 257.296 268.901C257.185 269.159 257.027 269.377 256.822 269.556C256.62 269.735 256.383 269.87 256.109 269.961C255.836 270.052 255.538 270.098 255.216 270.098C254.907 270.098 254.615 270.054 254.342 269.966C254.072 269.878 253.832 269.751 253.624 269.585C253.416 269.416 253.253 269.209 253.136 268.965C253.019 268.717 252.96 268.436 252.96 268.12H253.863C253.863 268.368 253.917 268.584 254.024 268.77C254.135 268.955 254.291 269.1 254.493 269.204C254.698 269.305 254.939 269.355 255.216 269.355C255.493 269.355 255.73 269.308 255.929 269.214C256.131 269.116 256.285 268.97 256.393 268.774C256.503 268.579 256.559 268.333 256.559 268.037C256.559 267.741 256.497 267.498 256.373 267.31C256.249 267.118 256.074 266.976 255.846 266.885C255.621 266.79 255.356 266.743 255.05 266.743H254.405ZM264.059 263.521L261.705 270H260.743L263.453 262.891H264.073L264.059 263.521ZM266.031 270L263.673 263.521L263.658 262.891H264.278L266.998 270H266.031ZM265.909 267.368V268.14H261.915V267.368H265.909ZM268.717 265.732V272.031H267.809V264.717H268.639L268.717 265.732ZM272.276 267.314V267.417C272.276 267.801 272.231 268.158 272.14 268.486C272.049 268.812 271.915 269.095 271.739 269.336C271.567 269.577 271.354 269.764 271.1 269.897C270.846 270.031 270.554 270.098 270.226 270.098C269.89 270.098 269.594 270.042 269.337 269.932C269.08 269.821 268.862 269.66 268.683 269.448C268.504 269.237 268.36 268.983 268.253 268.687C268.149 268.39 268.077 268.057 268.038 267.686V267.139C268.077 266.748 268.15 266.398 268.258 266.089C268.365 265.78 268.507 265.516 268.683 265.298C268.862 265.076 269.078 264.909 269.332 264.795C269.586 264.678 269.879 264.619 270.211 264.619C270.543 264.619 270.838 264.684 271.095 264.814C271.352 264.941 271.568 265.124 271.744 265.361C271.92 265.599 272.052 265.884 272.14 266.216C272.231 266.545 272.276 266.911 272.276 267.314ZM271.368 267.417V267.314C271.368 267.051 271.34 266.803 271.285 266.572C271.23 266.338 271.144 266.133 271.026 265.957C270.912 265.778 270.766 265.638 270.587 265.537C270.408 265.433 270.195 265.381 269.947 265.381C269.719 265.381 269.521 265.42 269.352 265.498C269.186 265.576 269.044 265.682 268.927 265.815C268.81 265.946 268.714 266.095 268.639 266.265C268.567 266.431 268.513 266.603 268.478 266.782V268.047C268.543 268.275 268.634 268.49 268.751 268.691C268.868 268.89 269.024 269.051 269.22 269.175C269.415 269.295 269.661 269.355 269.957 269.355C270.201 269.355 270.411 269.305 270.587 269.204C270.766 269.1 270.912 268.958 271.026 268.779C271.144 268.6 271.23 268.395 271.285 268.164C271.34 267.93 271.368 267.681 271.368 267.417ZM274.332 265.547V270H273.429V264.717H274.308L274.332 265.547ZM275.982 264.688L275.978 265.527C275.903 265.511 275.831 265.501 275.763 265.498C275.698 265.492 275.623 265.488 275.538 265.488C275.33 265.488 275.146 265.521 274.986 265.586C274.827 265.651 274.692 265.742 274.581 265.859C274.47 265.977 274.382 266.117 274.317 266.279C274.256 266.439 274.215 266.615 274.195 266.807L273.941 266.953C273.941 266.634 273.972 266.335 274.034 266.055C274.099 265.775 274.199 265.527 274.332 265.312C274.465 265.094 274.635 264.925 274.84 264.805C275.048 264.681 275.296 264.619 275.582 264.619C275.647 264.619 275.722 264.627 275.807 264.644C275.891 264.657 275.95 264.671 275.982 264.688Z" fill="#A3A3A3"/>
<path d="M371.675 265.879V266.963C371.675 267.546 371.623 268.037 371.519 268.438C371.414 268.838 371.265 269.16 371.069 269.404C370.874 269.648 370.638 269.826 370.361 269.937C370.088 270.044 369.779 270.098 369.434 270.098C369.16 270.098 368.908 270.063 368.677 269.995C368.446 269.927 368.237 269.818 368.052 269.668C367.869 269.515 367.713 269.316 367.583 269.072C367.453 268.828 367.354 268.532 367.285 268.184C367.217 267.835 367.183 267.428 367.183 266.963V265.879C367.183 265.296 367.235 264.808 367.339 264.414C367.446 264.02 367.598 263.704 367.793 263.467C367.988 263.226 368.223 263.053 368.496 262.949C368.773 262.845 369.082 262.793 369.424 262.793C369.701 262.793 369.954 262.827 370.186 262.896C370.42 262.961 370.628 263.066 370.811 263.213C370.993 263.356 371.147 263.548 371.274 263.789C371.405 264.027 371.504 264.318 371.572 264.663C371.641 265.008 371.675 265.413 371.675 265.879ZM370.767 267.109V265.728C370.767 265.409 370.747 265.129 370.708 264.888C370.672 264.644 370.618 264.435 370.547 264.263C370.475 264.09 370.384 263.95 370.273 263.843C370.166 263.735 370.041 263.657 369.897 263.608C369.757 263.556 369.6 263.53 369.424 263.53C369.209 263.53 369.019 263.571 368.853 263.652C368.687 263.73 368.547 263.856 368.433 264.028C368.322 264.201 368.237 264.427 368.179 264.707C368.12 264.987 368.091 265.327 368.091 265.728V267.109C368.091 267.428 368.109 267.71 368.145 267.954C368.184 268.198 368.241 268.41 368.315 268.589C368.39 268.765 368.481 268.91 368.589 269.023C368.696 269.137 368.82 269.222 368.96 269.277C369.103 269.329 369.261 269.355 369.434 269.355C369.655 269.355 369.849 269.313 370.015 269.229C370.181 269.144 370.319 269.012 370.43 268.833C370.544 268.651 370.628 268.418 370.684 268.135C370.739 267.848 370.767 267.507 370.767 267.109ZM377.642 267.607V268.35H372.505V267.817L375.688 262.891H376.426L375.635 264.316L373.53 267.607H377.642ZM376.65 262.891V270H375.747V262.891H376.65ZM383.809 263.521L381.455 270H380.493L383.203 262.891H383.823L383.809 263.521ZM385.781 270L383.423 263.521L383.408 262.891H384.028L386.748 270H385.781ZM385.659 267.368V268.14H381.665V267.368H385.659ZM388.467 265.732V272.031H387.559V264.717H388.389L388.467 265.732ZM392.026 267.314V267.417C392.026 267.801 391.981 268.158 391.89 268.486C391.799 268.812 391.665 269.095 391.489 269.336C391.317 269.577 391.104 269.764 390.85 269.897C390.596 270.031 390.304 270.098 389.976 270.098C389.64 270.098 389.344 270.042 389.087 269.932C388.83 269.821 388.612 269.66 388.433 269.448C388.254 269.237 388.11 268.983 388.003 268.687C387.899 268.39 387.827 268.057 387.788 267.686V267.139C387.827 266.748 387.9 266.398 388.008 266.089C388.115 265.78 388.257 265.516 388.433 265.298C388.612 265.076 388.828 264.909 389.082 264.795C389.336 264.678 389.629 264.619 389.961 264.619C390.293 264.619 390.588 264.684 390.845 264.814C391.102 264.941 391.318 265.124 391.494 265.361C391.67 265.599 391.802 265.884 391.89 266.216C391.981 266.545 392.026 266.911 392.026 267.314ZM391.118 267.417V267.314C391.118 267.051 391.09 266.803 391.035 266.572C390.98 266.338 390.894 266.133 390.776 265.957C390.662 265.778 390.516 265.638 390.337 265.537C390.158 265.433 389.945 265.381 389.697 265.381C389.469 265.381 389.271 265.42 389.102 265.498C388.936 265.576 388.794 265.682 388.677 265.815C388.56 265.946 388.464 266.095 388.389 266.265C388.317 266.431 388.263 266.603 388.228 266.782V268.047C388.293 268.275 388.384 268.49 388.501 268.691C388.618 268.89 388.774 269.051 388.97 269.175C389.165 269.295 389.411 269.355 389.707 269.355C389.951 269.355 390.161 269.305 390.337 269.204C390.516 269.1 390.662 268.958 390.776 268.779C390.894 268.6 390.98 268.395 391.035 268.164C391.09 267.93 391.118 267.681 391.118 267.417ZM394.082 265.547V270H393.179V264.717H394.058L394.082 265.547ZM395.732 264.688L395.728 265.527C395.653 265.511 395.581 265.501 395.513 265.498C395.448 265.492 395.373 265.488 395.288 265.488C395.08 265.488 394.896 265.521 394.736 265.586C394.577 265.651 394.442 265.742 394.331 265.859C394.22 265.977 394.132 266.117 394.067 266.279C394.006 266.439 393.965 266.615 393.945 266.807L393.691 266.953C393.691 266.634 393.722 266.335 393.784 266.055C393.849 265.775 393.949 265.527 394.082 265.312C394.215 265.094 394.385 264.925 394.59 264.805C394.798 264.681 395.046 264.619 395.332 264.619C395.397 264.619 395.472 264.627 395.557 264.644C395.641 264.657 395.7 264.671 395.732 264.688Z" fill="#A3A3A3"/>
<path d="M482.042 265.879V266.963C482.042 267.546 481.99 268.037 481.886 268.438C481.782 268.838 481.632 269.16 481.437 269.404C481.241 269.648 481.005 269.826 480.729 269.937C480.455 270.044 480.146 270.098 479.801 270.098C479.527 270.098 479.275 270.063 479.044 269.995C478.813 269.927 478.604 269.818 478.419 269.668C478.237 269.515 478.08 269.316 477.95 269.072C477.82 268.828 477.721 268.532 477.652 268.184C477.584 267.835 477.55 267.428 477.55 266.963V265.879C477.55 265.296 477.602 264.808 477.706 264.414C477.813 264.02 477.965 263.704 478.16 263.467C478.355 263.226 478.59 263.053 478.863 262.949C479.14 262.845 479.449 262.793 479.791 262.793C480.068 262.793 480.322 262.827 480.553 262.896C480.787 262.961 480.995 263.066 481.178 263.213C481.36 263.356 481.515 263.548 481.642 263.789C481.772 264.027 481.871 264.318 481.939 264.663C482.008 265.008 482.042 265.413 482.042 265.879ZM481.134 267.109V265.728C481.134 265.409 481.114 265.129 481.075 264.888C481.039 264.644 480.986 264.435 480.914 264.263C480.842 264.09 480.751 263.95 480.641 263.843C480.533 263.735 480.408 263.657 480.265 263.608C480.125 263.556 479.967 263.53 479.791 263.53C479.576 263.53 479.386 263.571 479.22 263.652C479.054 263.73 478.914 263.856 478.8 264.028C478.689 264.201 478.604 264.427 478.546 264.707C478.487 264.987 478.458 265.327 478.458 265.728V267.109C478.458 267.428 478.476 267.71 478.512 267.954C478.551 268.198 478.608 268.41 478.683 268.589C478.757 268.765 478.849 268.91 478.956 269.023C479.063 269.137 479.187 269.222 479.327 269.277C479.47 269.329 479.628 269.355 479.801 269.355C480.022 269.355 480.216 269.313 480.382 269.229C480.548 269.144 480.686 269.012 480.797 268.833C480.911 268.651 480.995 268.418 481.051 268.135C481.106 267.848 481.134 267.507 481.134 267.109ZM484.347 266.616L483.624 266.431L483.98 262.891H487.628V263.726H484.747L484.532 265.659C484.662 265.584 484.827 265.514 485.025 265.449C485.227 265.384 485.458 265.352 485.719 265.352C486.048 265.352 486.342 265.409 486.603 265.522C486.863 265.633 487.084 265.793 487.267 266.001C487.452 266.209 487.594 266.46 487.691 266.753C487.789 267.046 487.838 267.373 487.838 267.734C487.838 268.076 487.791 268.39 487.696 268.677C487.605 268.963 487.467 269.214 487.281 269.429C487.096 269.64 486.861 269.805 486.578 269.922C486.298 270.039 485.968 270.098 485.587 270.098C485.3 270.098 485.029 270.059 484.771 269.98C484.518 269.899 484.29 269.777 484.088 269.614C483.889 269.448 483.727 269.243 483.6 268.999C483.476 268.752 483.398 268.462 483.365 268.13H484.225C484.264 268.397 484.342 268.621 484.459 268.804C484.576 268.986 484.729 269.124 484.918 269.219C485.11 269.31 485.333 269.355 485.587 269.355C485.802 269.355 485.992 269.318 486.158 269.243C486.324 269.168 486.464 269.061 486.578 268.921C486.692 268.781 486.778 268.612 486.837 268.413C486.899 268.215 486.93 267.992 486.93 267.744C486.93 267.52 486.899 267.311 486.837 267.119C486.775 266.927 486.682 266.759 486.559 266.616C486.438 266.473 486.29 266.362 486.114 266.284C485.938 266.203 485.737 266.162 485.509 266.162C485.206 266.162 484.977 266.203 484.82 266.284C484.667 266.366 484.509 266.476 484.347 266.616ZM494.176 263.521L491.822 270H490.86L493.57 262.891H494.19L494.176 263.521ZM496.148 270L493.79 263.521L493.775 262.891H494.396L497.115 270H496.148ZM496.026 267.368V268.14H492.032V267.368H496.026ZM498.834 265.732V272.031H497.926V264.717H498.756L498.834 265.732ZM502.394 267.314V267.417C502.394 267.801 502.348 268.158 502.257 268.486C502.166 268.812 502.032 269.095 501.856 269.336C501.684 269.577 501.471 269.764 501.217 269.897C500.963 270.031 500.672 270.098 500.343 270.098C500.007 270.098 499.711 270.042 499.454 269.932C499.197 269.821 498.979 269.66 498.8 269.448C498.621 269.237 498.478 268.983 498.37 268.687C498.266 268.39 498.194 268.057 498.155 267.686V267.139C498.194 266.748 498.268 266.398 498.375 266.089C498.482 265.78 498.624 265.516 498.8 265.298C498.979 265.076 499.195 264.909 499.449 264.795C499.703 264.678 499.996 264.619 500.328 264.619C500.66 264.619 500.955 264.684 501.212 264.814C501.469 264.941 501.686 265.124 501.861 265.361C502.037 265.599 502.169 265.884 502.257 266.216C502.348 266.545 502.394 266.911 502.394 267.314ZM501.485 267.417V267.314C501.485 267.051 501.458 266.803 501.402 266.572C501.347 266.338 501.261 266.133 501.144 265.957C501.03 265.778 500.883 265.638 500.704 265.537C500.525 265.433 500.312 265.381 500.064 265.381C499.837 265.381 499.638 265.42 499.469 265.498C499.303 265.576 499.161 265.682 499.044 265.815C498.927 265.946 498.831 266.095 498.756 266.265C498.684 266.431 498.631 266.603 498.595 266.782V268.047C498.66 268.275 498.751 268.49 498.868 268.691C498.985 268.89 499.142 269.051 499.337 269.175C499.532 269.295 499.778 269.355 500.074 269.355C500.318 269.355 500.528 269.305 500.704 269.204C500.883 269.1 501.03 268.958 501.144 268.779C501.261 268.6 501.347 268.395 501.402 268.164C501.458 267.93 501.485 267.681 501.485 267.417ZM504.449 265.547V270H503.546V264.717H504.425L504.449 265.547ZM506.1 264.688L506.095 265.527C506.02 265.511 505.948 265.501 505.88 265.498C505.815 265.492 505.74 265.488 505.655 265.488C505.447 265.488 505.263 265.521 505.104 265.586C504.944 265.651 504.809 265.742 504.698 265.859C504.588 265.977 504.5 266.117 504.435 266.279C504.373 266.439 504.332 266.615 504.312 266.807L504.059 266.953C504.059 266.634 504.09 266.335 504.151 266.055C504.216 265.775 504.316 265.527 504.449 265.312C504.583 265.094 504.752 264.925 504.957 264.805C505.165 264.681 505.413 264.619 505.699 264.619C505.764 264.619 505.839 264.627 505.924 264.644C506.008 264.657 506.067 264.671 506.1 264.688Z" fill="#A3A3A3"/>
<path d="M11.4287 251.879V252.963C11.4287 253.546 11.3766 254.037 11.2725 254.438C11.1683 254.838 11.0186 255.16 10.8232 255.404C10.6279 255.648 10.3919 255.826 10.1152 255.937C9.8418 256.044 9.53255 256.098 9.1875 256.098C8.91406 256.098 8.66178 256.063 8.43066 255.995C8.19954 255.927 7.99121 255.818 7.80566 255.668C7.62337 255.515 7.46712 255.316 7.33691 255.072C7.20671 254.828 7.10742 254.532 7.03906 254.184C6.9707 253.835 6.93652 253.428 6.93652 252.963V251.879C6.93652 251.296 6.98861 250.808 7.09277 250.414C7.2002 250.02 7.35156 249.704 7.54688 249.467C7.74219 249.226 7.97656 249.053 8.25 248.949C8.52669 248.845 8.83594 248.793 9.17773 248.793C9.45443 248.793 9.70833 248.827 9.93945 248.896C10.1738 248.961 10.3822 249.066 10.5645 249.213C10.7467 249.356 10.9014 249.548 11.0283 249.789C11.1585 250.027 11.2578 250.318 11.3262 250.663C11.3945 251.008 11.4287 251.413 11.4287 251.879ZM10.5205 253.109V251.728C10.5205 251.409 10.501 251.129 10.4619 250.888C10.4261 250.644 10.3724 250.435 10.3008 250.263C10.2292 250.09 10.138 249.95 10.0273 249.843C9.91992 249.735 9.7946 249.657 9.65137 249.608C9.51139 249.556 9.35352 249.53 9.17773 249.53C8.96289 249.53 8.77246 249.571 8.60645 249.652C8.44043 249.73 8.30046 249.856 8.18652 250.028C8.07585 250.201 7.99121 250.427 7.93262 250.707C7.87402 250.987 7.84473 251.327 7.84473 251.728V253.109C7.84473 253.428 7.86263 253.71 7.89844 253.954C7.9375 254.198 7.99447 254.41 8.06934 254.589C8.14421 254.765 8.23535 254.91 8.34277 255.023C8.4502 255.137 8.57389 255.222 8.71387 255.277C8.8571 255.329 9.01497 255.355 9.1875 255.355C9.40885 255.355 9.60254 255.313 9.76855 255.229C9.93457 255.144 10.0729 255.012 10.1836 254.833C10.2975 254.651 10.3822 254.418 10.4375 254.135C10.4928 253.848 10.5205 253.507 10.5205 253.109Z" fill="#A3A3A3"/>
<path d="M5.99902 194.258V195H1.3457V194.351L3.6748 191.758C3.96126 191.439 4.18262 191.169 4.33887 190.947C4.49837 190.723 4.60905 190.522 4.6709 190.347C4.736 190.168 4.76855 189.985 4.76855 189.8C4.76855 189.565 4.71973 189.354 4.62207 189.165C4.52767 188.973 4.3877 188.82 4.20215 188.706C4.0166 188.592 3.79199 188.535 3.52832 188.535C3.21257 188.535 2.94889 188.597 2.7373 188.721C2.52897 188.841 2.37272 189.01 2.26855 189.229C2.16439 189.447 2.1123 189.697 2.1123 189.98H1.20898C1.20898 189.58 1.29688 189.214 1.47266 188.882C1.64844 188.55 1.90885 188.286 2.25391 188.091C2.59896 187.892 3.02376 187.793 3.52832 187.793C3.97754 187.793 4.36165 187.873 4.68066 188.032C4.99967 188.188 5.24382 188.41 5.41309 188.696C5.58561 188.979 5.67188 189.312 5.67188 189.692C5.67188 189.901 5.63607 190.112 5.56445 190.327C5.49609 190.539 5.40007 190.75 5.27637 190.962C5.15592 191.174 5.01432 191.382 4.85156 191.587C4.69206 191.792 4.52116 191.994 4.33887 192.192L2.43457 194.258H5.99902ZM11.4287 190.879V191.963C11.4287 192.546 11.3766 193.037 11.2725 193.438C11.1683 193.838 11.0186 194.16 10.8232 194.404C10.6279 194.648 10.3919 194.826 10.1152 194.937C9.8418 195.044 9.53255 195.098 9.1875 195.098C8.91406 195.098 8.66178 195.063 8.43066 194.995C8.19954 194.927 7.99121 194.818 7.80566 194.668C7.62337 194.515 7.46712 194.316 7.33691 194.072C7.20671 193.828 7.10742 193.532 7.03906 193.184C6.9707 192.835 6.93652 192.428 6.93652 191.963V190.879C6.93652 190.296 6.98861 189.808 7.09277 189.414C7.2002 189.02 7.35156 188.704 7.54688 188.467C7.74219 188.226 7.97656 188.053 8.25 187.949C8.52669 187.845 8.83594 187.793 9.17773 187.793C9.45443 187.793 9.70833 187.827 9.93945 187.896C10.1738 187.961 10.3822 188.066 10.5645 188.213C10.7467 188.356 10.9014 188.548 11.0283 188.789C11.1585 189.027 11.2578 189.318 11.3262 189.663C11.3945 190.008 11.4287 190.413 11.4287 190.879ZM10.5205 192.109V190.728C10.5205 190.409 10.501 190.129 10.4619 189.888C10.4261 189.644 10.3724 189.435 10.3008 189.263C10.2292 189.09 10.138 188.95 10.0273 188.843C9.91992 188.735 9.7946 188.657 9.65137 188.608C9.51139 188.556 9.35352 188.53 9.17773 188.53C8.96289 188.53 8.77246 188.571 8.60645 188.652C8.44043 188.73 8.30046 188.856 8.18652 189.028C8.07585 189.201 7.99121 189.427 7.93262 189.707C7.87402 189.987 7.84473 190.327 7.84473 190.728V192.109C7.84473 192.428 7.86263 192.71 7.89844 192.954C7.9375 193.198 7.99447 193.41 8.06934 193.589C8.14421 193.765 8.23535 193.91 8.34277 194.023C8.4502 194.137 8.57389 194.222 8.71387 194.277C8.8571 194.329 9.01497 194.355 9.1875 194.355C9.40885 194.355 9.60254 194.313 9.76855 194.229C9.93457 194.144 10.0729 194.012 10.1836 193.833C10.2975 193.651 10.3822 193.418 10.4375 193.135C10.4928 192.848 10.5205 192.507 10.5205 192.109Z" fill="#A3A3A3"/>
<path d="M6.14551 130.607V131.35H1.00879V130.817L4.19238 125.891H4.92969L4.13867 127.316L2.03418 130.607H6.14551ZM5.1543 125.891V133H4.25098V125.891H5.1543ZM11.4287 128.879V129.963C11.4287 130.546 11.3766 131.037 11.2725 131.438C11.1683 131.838 11.0186 132.16 10.8232 132.404C10.6279 132.648 10.3919 132.826 10.1152 132.937C9.8418 133.044 9.53255 133.098 9.1875 133.098C8.91406 133.098 8.66178 133.063 8.43066 132.995C8.19954 132.927 7.99121 132.818 7.80566 132.668C7.62337 132.515 7.46712 132.316 7.33691 132.072C7.20671 131.828 7.10742 131.532 7.03906 131.184C6.9707 130.835 6.93652 130.428 6.93652 129.963V128.879C6.93652 128.296 6.98861 127.808 7.09277 127.414C7.2002 127.02 7.35156 126.704 7.54688 126.467C7.74219 126.226 7.97656 126.053 8.25 125.949C8.52669 125.845 8.83594 125.793 9.17773 125.793C9.45443 125.793 9.70833 125.827 9.93945 125.896C10.1738 125.961 10.3822 126.066 10.5645 126.213C10.7467 126.356 10.9014 126.548 11.0283 126.789C11.1585 127.027 11.2578 127.318 11.3262 127.663C11.3945 128.008 11.4287 128.413 11.4287 128.879ZM10.5205 130.109V128.728C10.5205 128.409 10.501 128.129 10.4619 127.888C10.4261 127.644 10.3724 127.435 10.3008 127.263C10.2292 127.09 10.138 126.95 10.0273 126.843C9.91992 126.735 9.7946 126.657 9.65137 126.608C9.51139 126.556 9.35352 126.53 9.17773 126.53C8.96289 126.53 8.77246 126.571 8.60645 126.652C8.44043 126.73 8.30046 126.856 8.18652 127.028C8.07585 127.201 7.99121 127.427 7.93262 127.707C7.87402 127.987 7.84473 128.327 7.84473 128.728V130.109C7.84473 130.428 7.86263 130.71 7.89844 130.954C7.9375 131.198 7.99447 131.41 8.06934 131.589C8.14421 131.765 8.23535 131.91 8.34277 132.023C8.4502 132.137 8.57389 132.222 8.71387 132.277C8.8571 132.329 9.01497 132.355 9.1875 132.355C9.40885 132.355 9.60254 132.313 9.76855 132.229C9.93457 132.144 10.0729 132.012 10.1836 131.833C10.2975 131.651 10.3822 131.418 10.4375 131.135C10.4928 130.848 10.5205 130.507 10.5205 130.109Z" fill="#A3A3A3"/>
<path d="M4.80762 63.8809H4.88574V64.6475H4.80762C4.3291 64.6475 3.92871 64.7256 3.60645 64.8818C3.28418 65.0348 3.02865 65.2415 2.83984 65.502C2.65104 65.7591 2.51432 66.0488 2.42969 66.3711C2.34831 66.6934 2.30762 67.0205 2.30762 67.3525V68.3975C2.30762 68.7132 2.34505 68.9932 2.41992 69.2373C2.49479 69.4782 2.59733 69.6816 2.72754 69.8477C2.85775 70.0137 3.00423 70.139 3.16699 70.2236C3.33301 70.3083 3.50553 70.3506 3.68457 70.3506C3.8929 70.3506 4.07845 70.3115 4.24121 70.2334C4.40397 70.152 4.54069 70.0397 4.65137 69.8965C4.7653 69.75 4.85156 69.5775 4.91016 69.3789C4.96875 69.1803 4.99805 68.9622 4.99805 68.7246C4.99805 68.513 4.97201 68.3096 4.91992 68.1143C4.86784 67.9157 4.78809 67.7399 4.68066 67.5869C4.57324 67.4307 4.43815 67.3086 4.27539 67.2207C4.11589 67.1296 3.92546 67.084 3.7041 67.084C3.45345 67.084 3.21908 67.1458 3.00098 67.2695C2.78613 67.39 2.60872 67.5495 2.46875 67.748C2.33203 67.9434 2.25391 68.1566 2.23438 68.3877L1.75586 68.3828C1.80143 68.0182 1.88607 67.7074 2.00977 67.4502C2.13672 67.1898 2.29297 66.9782 2.47852 66.8154C2.66732 66.6494 2.87728 66.529 3.1084 66.4541C3.34277 66.376 3.59017 66.3369 3.85059 66.3369C4.2054 66.3369 4.51139 66.4036 4.76855 66.5371C5.02572 66.6706 5.2373 66.8496 5.40332 67.0742C5.56934 67.2956 5.69141 67.5462 5.76953 67.8262C5.85091 68.1029 5.8916 68.3877 5.8916 68.6807C5.8916 69.016 5.8444 69.3301 5.75 69.623C5.6556 69.916 5.514 70.1732 5.3252 70.3945C5.13965 70.6159 4.91016 70.7884 4.63672 70.9121C4.36328 71.0358 4.0459 71.0977 3.68457 71.0977C3.30046 71.0977 2.96517 71.0195 2.67871 70.8633C2.39225 70.7038 2.15462 70.4922 1.96582 70.2285C1.77702 69.9648 1.63542 69.6719 1.54102 69.3496C1.44661 69.0273 1.39941 68.7002 1.39941 68.3682V67.9434C1.39941 67.4421 1.44987 66.9505 1.55078 66.4688C1.65169 65.987 1.82585 65.5508 2.07324 65.1602C2.32389 64.7695 2.67057 64.4587 3.11328 64.2275C3.55599 63.9964 4.12077 63.8809 4.80762 63.8809ZM11.4287 66.8789V67.9629C11.4287 68.5456 11.3766 69.0371 11.2725 69.4375C11.1683 69.8379 11.0186 70.1602 10.8232 70.4043C10.6279 70.6484 10.3919 70.8258 10.1152 70.9365C9.8418 71.0439 9.53255 71.0977 9.1875 71.0977C8.91406 71.0977 8.66178 71.0635 8.43066 70.9951C8.19954 70.9268 7.99121 70.8177 7.80566 70.668C7.62337 70.515 7.46712 70.3164 7.33691 70.0723C7.20671 69.8281 7.10742 69.5319 7.03906 69.1836C6.9707 68.8353 6.93652 68.4284 6.93652 67.9629V66.8789C6.93652 66.2962 6.98861 65.8079 7.09277 65.4141C7.2002 65.0202 7.35156 64.7044 7.54688 64.4668C7.74219 64.2259 7.97656 64.0534 8.25 63.9492C8.52669 63.8451 8.83594 63.793 9.17773 63.793C9.45443 63.793 9.70833 63.8271 9.93945 63.8955C10.1738 63.9606 10.3822 64.0664 10.5645 64.2129C10.7467 64.3561 10.9014 64.5482 11.0283 64.7891C11.1585 65.0267 11.2578 65.318 11.3262 65.6631C11.3945 66.0081 11.4287 66.4134 11.4287 66.8789ZM10.5205 68.1094V66.7275C10.5205 66.4085 10.501 66.1286 10.4619 65.8877C10.4261 65.6436 10.3724 65.4352 10.3008 65.2627C10.2292 65.0902 10.138 64.9502 10.0273 64.8428C9.91992 64.7354 9.7946 64.6572 9.65137 64.6084C9.51139 64.5563 9.35352 64.5303 9.17773 64.5303C8.96289 64.5303 8.77246 64.571 8.60645 64.6523C8.44043 64.7305 8.30046 64.8558 8.18652 65.0283C8.07585 65.2008 7.99121 65.4271 7.93262 65.707C7.87402 65.987 7.84473 66.3271 7.84473 66.7275V68.1094C7.84473 68.4284 7.86263 68.71 7.89844 68.9541C7.9375 69.1982 7.99447 69.4098 8.06934 69.5889C8.14421 69.7646 8.23535 69.9095 8.34277 70.0234C8.4502 70.1374 8.57389 70.222 8.71387 70.2773C8.8571 70.3294 9.01497 70.3555 9.1875 70.3555C9.40885 70.3555 9.60254 70.3132 9.76855 70.2285C9.93457 70.1439 10.0729 70.012 10.1836 69.833C10.2975 69.6507 10.3822 69.418 10.4375 69.1348C10.4928 68.8483 10.5205 68.5065 10.5205 68.1094Z" fill="#A3A3A3"/>
<path d="M5.82324 7.07617C5.82324 7.50911 5.72233 7.87695 5.52051 8.17969C5.32194 8.47917 5.05176 8.70703 4.70996 8.86328C4.37142 9.01953 3.98893 9.09766 3.5625 9.09766C3.13607 9.09766 2.75195 9.01953 2.41016 8.86328C2.06836 8.70703 1.79818 8.47917 1.59961 8.17969C1.40104 7.87695 1.30176 7.50911 1.30176 7.07617C1.30176 6.79297 1.35547 6.53418 1.46289 6.2998C1.57357 6.06217 1.72819 5.85547 1.92676 5.67969C2.12858 5.50391 2.36621 5.36882 2.63965 5.27441C2.91634 5.17676 3.2207 5.12793 3.55273 5.12793C3.98893 5.12793 4.37793 5.21257 4.71973 5.38184C5.06152 5.54785 5.33008 5.77734 5.52539 6.07031C5.72396 6.36328 5.82324 6.69857 5.82324 7.07617ZM4.91504 7.05664C4.91504 6.79297 4.85807 6.56022 4.74414 6.3584C4.63021 6.15332 4.4707 5.99382 4.26562 5.87988C4.06055 5.76595 3.82292 5.70898 3.55273 5.70898C3.27604 5.70898 3.03678 5.76595 2.83496 5.87988C2.63639 5.99382 2.48177 6.15332 2.37109 6.3584C2.26042 6.56022 2.20508 6.79297 2.20508 7.05664C2.20508 7.33008 2.25879 7.56445 2.36621 7.75977C2.47689 7.95182 2.63314 8.09993 2.83496 8.2041C3.04004 8.30501 3.28255 8.35547 3.5625 8.35547C3.84245 8.35547 4.08333 8.30501 4.28516 8.2041C4.48698 8.09993 4.6416 7.95182 4.74902 7.75977C4.8597 7.56445 4.91504 7.33008 4.91504 7.05664ZM5.65723 3.74121C5.65723 4.08626 5.56608 4.39714 5.38379 4.67383C5.2015 4.95052 4.95247 5.16862 4.63672 5.32812C4.32096 5.48763 3.96289 5.56738 3.5625 5.56738C3.1556 5.56738 2.79264 5.48763 2.47363 5.32812C2.15788 5.16862 1.91048 4.95052 1.73145 4.67383C1.55241 4.39714 1.46289 4.08626 1.46289 3.74121C1.46289 3.3278 1.55241 2.97624 1.73145 2.68652C1.91374 2.39681 2.16276 2.17546 2.47852 2.02246C2.79427 1.86947 3.15397 1.79297 3.55762 1.79297C3.96452 1.79297 4.32585 1.86947 4.6416 2.02246C4.95736 2.17546 5.20475 2.39681 5.38379 2.68652C5.56608 2.97624 5.65723 3.3278 5.65723 3.74121ZM4.75391 3.75586C4.75391 3.51823 4.70345 3.30827 4.60254 3.12598C4.50163 2.94368 4.36165 2.80046 4.18262 2.69629C4.00358 2.58887 3.79525 2.53516 3.55762 2.53516C3.31999 2.53516 3.11165 2.58561 2.93262 2.68652C2.75684 2.78418 2.61849 2.92415 2.51758 3.10645C2.41992 3.28874 2.37109 3.50521 2.37109 3.75586C2.37109 4 2.41992 4.21322 2.51758 4.39551C2.61849 4.5778 2.75846 4.7194 2.9375 4.82031C3.11654 4.92122 3.32487 4.97168 3.5625 4.97168C3.80013 4.97168 4.00684 4.92122 4.18262 4.82031C4.36165 4.7194 4.50163 4.5778 4.60254 4.39551C4.70345 4.21322 4.75391 4 4.75391 3.75586ZM11.4287 4.87891V5.96289C11.4287 6.54557 11.3766 7.03711 11.2725 7.4375C11.1683 7.83789 11.0186 8.16016 10.8232 8.4043C10.6279 8.64844 10.3919 8.82585 10.1152 8.93652C9.8418 9.04395 9.53255 9.09766 9.1875 9.09766C8.91406 9.09766 8.66178 9.06348 8.43066 8.99512C8.19954 8.92676 7.99121 8.81771 7.80566 8.66797C7.62337 8.51497 7.46712 8.31641 7.33691 8.07227C7.20671 7.82812 7.10742 7.5319 7.03906 7.18359C6.9707 6.83529 6.93652 6.42839 6.93652 5.96289V4.87891C6.93652 4.29622 6.98861 3.80794 7.09277 3.41406C7.2002 3.02018 7.35156 2.70443 7.54688 2.4668C7.74219 2.22591 7.97656 2.05339 8.25 1.94922C8.52669 1.84505 8.83594 1.79297 9.17773 1.79297C9.45443 1.79297 9.70833 1.82715 9.93945 1.89551C10.1738 1.96061 10.3822 2.06641 10.5645 2.21289C10.7467 2.35612 10.9014 2.54818 11.0283 2.78906C11.1585 3.02669 11.2578 3.31803 11.3262 3.66309C11.3945 4.00814 11.4287 4.41341 11.4287 4.87891ZM10.5205 6.10938V4.72754C10.5205 4.40853 10.501 4.12858 10.4619 3.8877C10.4261 3.64355 10.3724 3.43522 10.3008 3.2627C10.2292 3.09017 10.138 2.9502 10.0273 2.84277C9.91992 2.73535 9.7946 2.65723 9.65137 2.6084C9.51139 2.55632 9.35352 2.53027 9.17773 2.53027C8.96289 2.53027 8.77246 2.57096 8.60645 2.65234C8.44043 2.73047 8.30046 2.85579 8.18652 3.02832C8.07585 3.20085 7.99121 3.42708 7.93262 3.70703C7.87402 3.98698 7.84473 4.32715 7.84473 4.72754V6.10938C7.84473 6.42839 7.86263 6.70996 7.89844 6.9541C7.9375 7.19824 7.99447 7.40983 8.06934 7.58887C8.14421 7.76465 8.23535 7.90951 8.34277 8.02344C8.4502 8.13737 8.57389 8.22201 8.71387 8.27734C8.8571 8.32943 9.01497 8.35547 9.1875 8.35547C9.40885 8.35547 9.60254 8.31315 9.76855 8.22852C9.93457 8.14388 10.0729 8.01204 10.1836 7.83301C10.2975 7.65072 10.3822 7.41797 10.4375 7.13477C10.4928 6.84831 10.5205 6.50651 10.5205 6.10938Z" fill="#A3A3A3"/>
<path d="M22 234.475C22 234.475 93.85 232.623 141.75 219.038C189.65 205.453 213.6 201.13 261.5 166.55C309.4 131.97 333.35 46.1375 381.25 46.1375C429.15 46.1375 501 246.825 501 246.825" stroke="#A6CEE3" stroke-width="2"/>
<path d="M22 238C20.9393 238 19.922 237.579 19.1719 236.829C18.4218 236.079 18.0003 235.062 18 234.001C17.9997 232.94 18.4208 231.923 19.1705 231.173C19.9203 230.422 20.9373 230.001 21.998 230C23.0587 229.999 24.0762 230.42 24.8267 231.17C25.5772 231.919 25.9992 232.936 26 233.997C26.0008 235.058 25.5803 236.075 24.8309 236.826C24.0815 237.577 23.0647 237.999 22.004 238H22Z" fill="#A6CEE3"/>
<path d="M141 223C139.939 223 138.922 222.579 138.172 221.829C137.422 221.079 137 220.062 137 219.001C137 217.94 137.421 216.923 138.171 216.173C138.92 215.422 139.937 215.001 140.998 215C142.059 214.999 143.076 215.42 143.827 216.17C144.577 216.919 144.999 217.936 145 218.997C145.001 220.058 144.58 221.075 143.831 221.826C143.082 222.577 142.065 222.999 141.004 223H141Z" fill="#A6CEE3"/>
<path d="M261 171C259.939 171 258.922 170.579 258.172 169.829C257.422 169.079 257 168.062 257 167.001C257 165.94 257.421 164.923 258.171 164.173C258.92 163.422 259.937 163.001 260.998 163C262.059 162.999 263.076 163.42 263.827 164.17C264.577 164.919 264.999 165.936 265 166.997C265.001 168.058 264.58 169.075 263.831 169.826C263.082 170.577 262.065 170.999 261.004 171H261Z" fill="#A6CEE3"/>
<path d="M381 50C379.939 50 378.922 49.5787 378.172 48.8288C377.422 48.0789 377 47.0617 377 46.001C377 44.9403 377.421 43.9229 378.171 43.1726C378.92 42.4223 379.937 42.0005 380.998 42C382.059 41.9995 383.076 42.4203 383.827 43.1698C384.577 43.9194 384.999 44.9363 385 45.997C385.001 47.0577 384.58 48.0753 383.831 48.826C383.082 49.5766 382.065 49.9989 381.004 50L381 50Z" fill="#A6CEE3"/>
<path d="M501 251C499.939 251 498.922 250.579 498.172 249.829C497.422 249.079 497 248.062 497 247.001C497 245.94 497.421 244.923 498.171 244.173C498.92 243.422 499.937 243.001 500.998 243C502.059 242.999 503.076 243.42 503.827 244.17C504.577 244.919 504.999 245.936 505 246.997C505.001 248.058 504.58 249.075 503.831 249.826C503.082 250.577 502.065 250.999 501.004 251H501Z" fill="#A6CEE3"/>
<path d="M22 181.988C22 181.988 93.85 243.738 141.75 243.738C189.65 243.738 213.6 39.9625 261.5 39.9625C309.4 39.9625 333.35 50.46 381.25 92.45C429.15 134.44 501 249.913 501 249.913" stroke="#1F78B4" stroke-width="2"/>
<path d="M22 186C20.9393 186 19.922 185.579 19.1719 184.829C18.4218 184.079 18.0003 183.062 18 182.001C17.9997 180.94 18.4208 179.923 19.1705 179.173C19.9203 178.422 20.9373 178.001 21.998 178C23.0587 177.999 24.0762 178.42 24.8267 179.17C25.5772 179.919 25.9992 180.936 26 181.997C26.0008 183.058 25.5803 184.075 24.8309 184.826C24.0815 185.577 23.0647 185.999 22.004 186H22Z" fill="#1F78B4"/>
<path d="M141 248C139.939 248 138.922 247.579 138.172 246.829C137.422 246.079 137 245.062 137 244.001C137 242.94 137.421 241.923 138.171 241.173C138.92 240.422 139.937 240.001 140.998 240C142.059 239.999 143.076 240.42 143.827 241.17C144.577 241.919 144.999 242.936 145 243.997C145.001 245.058 144.58 246.075 143.831 246.826C143.082 247.577 142.065 247.999 141.004 248H141Z" fill="#1F78B4"/>
<path d="M261 44C259.939 44 258.922 43.5787 258.172 42.8288C257.422 42.0789 257 41.0617 257 40.001C257 38.9403 257.421 37.9229 258.171 37.1726C258.92 36.4223 259.937 36.0005 260.998 36C262.059 35.9995 263.076 36.4203 263.827 37.1698C264.577 37.9194 264.999 38.9363 265 39.997C265.001 41.0577 264.58 42.0753 263.831 42.826C263.082 43.5766 262.065 43.9989 261.004 44L261 44Z" fill="#1F78B4"/>
<path d="M381 96C379.939 96 378.922 95.5787 378.172 94.8288C377.422 94.0789 377 93.0617 377 92.001C377 90.9403 377.421 89.9229 378.171 89.1726C378.92 88.4223 379.937 88.0005 380.998 88C382.059 87.9995 383.076 88.4203 383.827 89.1698C384.577 89.9194 384.999 90.9363 385 91.997C385.001 93.0577 384.58 94.0753 383.831 94.826C383.082 95.5766 382.065 95.9989 381.004 96H381Z" fill="#1F78B4"/>
<path d="M501 254C499.939 254 498.922 253.579 498.172 252.829C497.422 252.079 497 251.062 497 250.001C497 248.94 497.421 247.923 498.171 247.173C498.92 246.422 499.937 246.001 500.998 246C502.059 245.999 503.076 246.42 503.827 247.17C504.577 247.919 504.999 248.936 505 249.997C505.001 251.058 504.58 252.075 503.831 252.826C503.082 253.577 502.065 253.999 501.004 254H501Z" fill="#1F78B4"/>
</svg>
